Normalized EMG Linear Envelopes
nRows=237
nColumns=4

endheader
time	 med_gas_r	  soleus_r	 tib_ant_r	
3.45968	  0.095385	  0.060866	  0.017555	
3.49294	  0.092198	  0.059931	  0.016917	
3.52621	  0.090059	  0.059706	  0.016469	
3.55948	  0.089227	  0.060049	  0.016246	
3.59274	  0.089520	  0.060778	  0.016195	
3.62601	  0.090304	  0.062032	  0.016267	
3.65927	  0.090713	  0.063999	  0.016444	
3.69254	  0.090131	  0.066519	  0.016677	
3.72581	  0.088478	  0.068970	  0.016895	
3.75907	  0.086046	  0.070924	  0.017084	
3.79234	  0.083232	  0.072536	  0.017276	
3.8256	  0.080769	  0.073785	  0.017468	
3.85887	  0.079436	  0.074123	  0.017677	
3.89214	  0.079467	  0.073178	  0.017945	
3.9254	  0.080427	  0.071355	  0.018274	
3.95867	  0.081796	  0.069619	  0.018543	
3.99194	  0.083158	  0.068730	  0.018601	
4.0252	  0.083959	  0.068748	  0.018491	
4.05847	  0.084133	  0.069141	  0.018334	
4.09173	  0.084027	  0.069307	  0.018291	
4.125	  0.083866	  0.069120	  0.018455	
4.15827	  0.083816	  0.068725	  0.018833	
4.19153	  0.083953	  0.068360	  0.019389	
4.2248	  0.084541	  0.068268	  0.020069	
4.25806	  0.085626	  0.068323	  0.020754	
4.29133	  0.086975	  0.068281	  0.021373	
4.3246	  0.088263	  0.068183	  0.021871	
4.35786	  0.089090	  0.068189	  0.022139	
4.39113	  0.088910	  0.068474	  0.022115	
4.4244	  0.087703	  0.069128	  0.021769	
4.45766	  0.086209	  0.069932	  0.021187	
4.49093	  0.084945	  0.070665	  0.020573	
4.52419	  0.084207	  0.071544	  0.020074	
4.55746	  0.083874	  0.072686	  0.019692	
4.59073	  0.083713	  0.073702	  0.019393	
4.62399	  0.083829	  0.073870	  0.019195	
4.65726	  0.084071	  0.072905	  0.019081	
4.69052	  0.084239	  0.071272	  0.019014	
4.72379	  0.084461	  0.069544	  0.018881	
4.75706	  0.084803	  0.068140	  0.018571	
4.79032	  0.084927	  0.067268	  0.018164	
4.82359	  0.084581	  0.067016	  0.017799	
4.85685	  0.083664	  0.067169	  0.017562	
4.89012	  0.082129	  0.067292	  0.017497	
4.92339	  0.080278	  0.067323	  0.017583	
4.95665	  0.078695	  0.067201	  0.017731	
4.98992	  0.077657	  0.066666	  0.017959	
5.02319	  0.077179	  0.065664	  0.018359	
5.05645	  0.076958	  0.064322	  0.018932	
5.08972	  0.076760	  0.062729	  0.019598	
5.12298	  0.076657	  0.061073	  0.020263	
5.15625	  0.076855	  0.059563	  0.020794	
5.18952	  0.077415	  0.058306	  0.021034	
5.22278	  0.078199	  0.057832	  0.020954	
5.25605	  0.078789	  0.058573	  0.020606	
5.28931	  0.078694	  0.060631	  0.019979	
5.32258	  0.077688	  0.063879	  0.019015	
5.35585	  0.076146	  0.067971	  0.017533	
5.38911	  0.074582	  0.072283	  0.015379	
5.42238	  0.073407	  0.075830	  0.012555	
5.45565	  0.072721	  0.077811	  0.009138	
5.48891	  0.072339	  0.077715	  0.005406	
5.52218	  0.072273	  0.075934	  0.002056	
5.55544	  0.072704	  0.073516	  0.000274	
5.58871	  0.074080	  0.071423	  0.001806	
5.62198	  0.077372	  0.070788	  0.009016	
5.65524	  0.083873	  0.073059	  0.024795	
5.68851	  0.094770	  0.080105	  0.052321	
5.72177	  0.111213	  0.093674	  0.094732	
5.75504	  0.134274	  0.115261	  0.154357	
5.78831	  0.164337	  0.145493	  0.231336	
5.82157	  0.199952	  0.183238	  0.322107	
5.85484	  0.237932	  0.226332	  0.419797	
5.8881	  0.275422	  0.272085	  0.515667	
5.92137	  0.310260	  0.317343	  0.601711	
5.95464	  0.341023	  0.357649	  0.670841	
5.9879	  0.368065	  0.390697	  0.718600	
6.02117	  0.391972	  0.416911	  0.745533	
6.05444	  0.412871	  0.437575	  0.752519	
6.0877	  0.430886	  0.453842	  0.742762	
6.12097	  0.446888	  0.466656	  0.720431	
6.15423	  0.462310	  0.477800	  0.691367	
6.1875	  0.476040	  0.487506	  0.662682	
6.22077	  0.486530	  0.495821	  0.638692	
6.25403	  0.494872	  0.501569	  0.622436	
6.2873	  0.503726	  0.505519	  0.615443	
6.32056	  0.516662	  0.510467	  0.616331	
6.35383	  0.533779	  0.517320	  0.621993	
6.3871	  0.552174	  0.525848	  0.629406	
6.42036	  0.567364	  0.532356	  0.636856	
6.45363	  0.577593	  0.536935	  0.644766	
6.4869	  0.584470	  0.542884	  0.655203	
6.52016	  0.590557	  0.552063	  0.666793	
6.55343	  0.599832	  0.567307	  0.677362	
6.58669	  0.613535	  0.589245	  0.687117	
6.61996	  0.629762	  0.616277	  0.698063	
6.65323	  0.644454	  0.642696	  0.709806	
6.68649	  0.654292	  0.662101	  0.719022	
6.71976	  0.658014	  0.671428	  0.720894	
6.75302	  0.657052	  0.671336	  0.716372	
6.78629	  0.655795	  0.666839	  0.713645	
6.81956	  0.660966	  0.666952	  0.716483	
6.85282	  0.672993	  0.674299	  0.725807	
6.88609	  0.684989	  0.682710	  0.741622	
6.91935	  0.689652	  0.686826	  0.759983	
6.95262	  0.685804	  0.685657	  0.775182	
6.98589	  0.674445	  0.678333	  0.782496	
7.01915	  0.658807	  0.665426	  0.780614	
7.05242	  0.642837	  0.649057	  0.773099	
7.08569	  0.629668	  0.631742	  0.765939	
7.11895	  0.620865	  0.613987	  0.763727	
7.15222	  0.616450	  0.597158	  0.767854	
7.18548	  0.619137	  0.585918	  0.778654	
7.21875	  0.632252	  0.584768	  0.795957	
7.25202	  0.654910	  0.592998	  0.818971	
7.28528	  0.683771	  0.608874	  0.845403	
7.31855	  0.717434	  0.634016	  0.874908	
7.35181	  0.752135	  0.666235	  0.907624	
7.38508	  0.781280	  0.702345	  0.940803	
7.41835	  0.801309	  0.739560	  0.969873	
7.45161	  0.814261	  0.774883	  0.991360	
7.48488	  0.821350	  0.803393	  0.999972	
7.51815	  0.821888	  0.821137	  0.993820	
7.55141	  0.816727	  0.828197	  0.976609	
7.58468	  0.805246	  0.823989	  0.951555	
7.61794	  0.786730	  0.807393	  0.923531	
7.65121	  0.762966	  0.781525	  0.898167	
7.68448	  0.734446	  0.750222	  0.879280	
7.71774	  0.704179	  0.718774	  0.867312	
7.75101	  0.676202	  0.691035	  0.860438	
7.78427	  0.654390	  0.670232	  0.857414	
7.81754	  0.639285	  0.657462	  0.857912	
7.85081	  0.630960	  0.651000	  0.859522	
7.88407	  0.632374	  0.650739	  0.860482	
7.91734	  0.644652	  0.656218	  0.862362	
7.9506	  0.666862	  0.667530	  0.864421	
7.98387	  0.694518	  0.682094	  0.866745	
8.01714	  0.720947	  0.696450	  0.867263	
8.0504	  0.742255	  0.709055	  0.863252	
8.08367	  0.754197	  0.716590	  0.857385	
8.11694	  0.752369	  0.716488	  0.853367	
8.1502	  0.737716	  0.710358	  0.853715	
8.18347	  0.716727	  0.701176	  0.860670	
8.21673	  0.696440	  0.692465	  0.875732	
8.25	  0.681337	  0.688547	  0.897887	
8.28327	  0.675211	  0.693426	  0.922289	
8.31653	  0.680472	  0.708179	  0.944842	
8.3498	  0.696900	  0.731805	  0.962136	
8.38306	  0.721185	  0.759709	  0.970038	
8.41633	  0.745550	  0.782548	  0.966854	
8.4496	  0.764036	  0.796266	  0.956118	
8.48286	  0.777383	  0.804093	  0.942015	
8.51613	  0.788732	  0.810212	  0.923114	
8.5494	  0.796177	  0.812790	  0.898530	
8.58266	  0.796235	  0.808347	  0.872243	
8.61593	  0.789761	  0.797551	  0.848796	
8.64919	  0.780192	  0.784015	  0.831084	
8.68246	  0.768446	  0.771232	  0.816212	
8.71573	  0.754399	  0.757595	  0.801809	
8.74899	  0.740105	  0.739416	  0.789727	
8.78226	  0.727959	  0.715521	  0.781246	
8.81552	  0.719735	  0.688193	  0.777483	
8.84879	  0.717760	  0.664136	  0.781295	
8.88206	  0.723611	  0.650411	  0.795349	
8.91532	  0.736888	  0.650490	  0.820912	
8.94859	  0.753755	  0.662477	  0.855581	
8.98185	  0.769682	  0.682891	  0.892774	
9.01512	  0.785211	  0.711312	  0.926585	
9.04839	  0.800983	  0.745278	  0.954325	
9.08165	  0.815537	  0.781349	  0.974409	
9.11492	  0.828303	  0.816768	  0.985855	
9.14819	  0.838058	  0.846650	  0.987683	
9.18145	  0.842780	  0.864913	  0.980686	
9.21472	  0.843490	  0.871384	  0.968582	
9.24798	  0.842847	  0.872507	  0.955467	
9.28125	  0.843295	  0.872909	  0.943855	
9.31452	  0.846228	  0.875125	  0.933558	
9.34778	  0.853560	  0.882464	  0.925058	
9.38105	  0.866168	  0.897104	  0.923213	
9.41431	  0.878932	  0.914316	  0.926727	
9.44758	  0.885706	  0.922894	  0.931776	
9.48085	  0.887644	  0.919027	  0.939524	
9.51411	  0.887720	  0.907726	  0.949905	
9.54738	  0.885501	  0.892196	  0.961321	
9.58065	  0.875488	  0.871131	  0.968451	
9.61391	  0.854397	  0.843702	  0.962384	
9.64718	  0.821569	  0.808710	  0.941647	
9.68044	  0.779620	  0.770219	  0.912402	
9.71371	  0.733165	  0.731020	  0.880319	
9.74698	  0.688481	  0.694352	  0.849921	
9.78024	  0.651227	  0.664573	  0.823668	
9.81351	  0.622186	  0.642222	  0.801273	
9.84677	  0.602672	  0.626591	  0.779575	
9.88004	  0.595781	  0.620183	  0.756757	
9.91331	  0.602454	  0.622415	  0.735896	
9.94657	  0.619500	  0.629194	  0.720775	
9.97984	  0.640291	  0.635605	  0.712343	
10.0131	  0.658037	  0.639845	  0.707048	
10.0464	  0.670109	  0.643471	  0.701021	
10.0796	  0.674438	  0.646457	  0.691766	
10.1129	  0.669563	  0.644811	  0.677784	
10.1462	  0.653973	  0.632961	  0.657508	
10.1794	  0.630101	  0.610523	  0.630695	
10.2127	  0.599004	  0.577499	  0.597757	
10.246	  0.558446	  0.533656	  0.556244	
10.2792	  0.505017	  0.475820	  0.503868	
10.3125	  0.440470	  0.407221	  0.438525	
10.3458	  0.371693	  0.335845	  0.363948	
10.379	  0.304722	  0.267790	  0.287945	
10.4123	  0.244173	  0.207874	  0.217808	
10.4456	  0.194080	  0.159361	  0.158299	
10.4788	  0.155946	  0.123097	  0.110762	
10.5121	  0.129338	  0.098114	  0.074183	
10.5454	  0.113097	  0.082579	  0.047787	
10.5786	  0.105312	  0.074604	  0.030499	
10.6119	  0.102967	  0.071532	  0.020666	
10.6452	  0.103037	  0.070360	  0.016409	
10.6784	  0.103501	  0.069195	  0.015899	
10.7117	  0.103420	  0.067988	  0.017598	
10.745	  0.103069	  0.067136	  0.020319	
10.7782	  0.102669	  0.066764	  0.023053	
10.8115	  0.101750	  0.066755	  0.025277	
10.8448	  0.099855	  0.067106	  0.026891	
10.878	  0.097697	  0.067869	  0.027850	
10.9113	  0.095925	  0.068988	  0.028094	
10.9446	  0.094608	  0.070503	  0.027612	
10.9778	  0.093468	  0.072470	  0.026703	
11.0111	  0.092374	  0.075009	  0.025634	
11.0444	  0.090937	  0.078152	  0.024600	
11.0776	  0.088953	  0.081897	  0.023719	
11.1109	  0.086516	  0.086144	  0.023113	
11.1442	  0.084173	  0.090728	  0.022912	
11.1774	  0.082890	  0.095762	  0.023022	
11.2107	  0.083383	  0.101353	  0.023235	
11.244	  0.085822	  0.107452	  0.023513	
11.2772	  0.090009	  0.114057	  0.023943	
11.3105	  0.095529	  0.121095	  0.024605	
